<?xml version="1.0" encoding="UTF-8"?>
<svg xmlns="http://www.w3.org/2000/svg" viewBox="0 0 800 600" fill="none">
  <!-- Background with gradient -->
  <defs>
    <linearGradient id="bg-gradient" x1="0%" y1="0%" x2="100%" y2="100%">
      <stop offset="0%" stop-color="#7209b7" stop-opacity="0.1"/>
      <stop offset="100%" stop-color="#560bad" stop-opacity="0.2"/>
    </linearGradient>
    
    <!-- Glow effects -->
    <filter id="glow" x="-20%" y="-20%" width="140%" height="140%">
      <feGaussianBlur stdDeviation="5" result="blur"/>
      <feComposite in="SourceGraphic" in2="blur" operator="over"/>
    </filter>
    
    <!-- Brand Pattern -->
    <pattern id="brand-pattern" patternUnits="userSpaceOnUse" width="20" height="20">
      <path d="M0,10 L20,10" stroke="#7209b7" stroke-width="0.5" stroke-opacity="0.3"/>
      <path d="M10,0 L10,20" stroke="#7209b7" stroke-width="0.5" stroke-opacity="0.3"/>
    </pattern>
    
    <!-- Magic Sparkle -->
    <filter id="sparkle" x="-50%" y="-50%" width="200%" height="200%">
      <feGaussianBlur stdDeviation="2" result="blur"/>
      <feComposite in="SourceGraphic" in2="blur" operator="over"/>
    </filter>
    
    <!-- Photo Frame Pattern -->
    <pattern id="photo-pattern" patternUnits="userSpaceOnUse" width="50" height="50">
      <rect width="50" height="50" fill="#ffffff" stroke="#dddddd" stroke-width="1"/>
      <rect x="5" y="5" width="40" height="30" fill="#f0f0f0"/>
      <rect x="5" y="40" width="25" height="5" fill="#dddddd"/>
    </pattern>
  </defs>
  
  <!-- Background rectangle -->
  <rect width="800" height="600" fill="url(#bg-gradient)"/>
  
  <!-- Decorative circuit elements -->
  <g class="circuit-elements" opacity="0.15">
    <path d="M100,300 C150,250 200,350 250,300" stroke="#7209b7" stroke-width="2" fill="none"/>
    <path d="M500,200 C550,150 600,250 650,200" stroke="#7209b7" stroke-width="2" fill="none"/>
    <path d="M150,150 L200,150" stroke="#7209b7" stroke-width="1.5"/>
    <path d="M600,400 L650,400" stroke="#7209b7" stroke-width="1.5"/>
    <circle cx="150" cy="150" r="3" fill="#7209b7"/>
    <circle cx="200" cy="150" r="3" fill="#7209b7"/>
    <circle cx="600" cy="400" r="3" fill="#7209b7"/>
    <circle cx="650" cy="400" r="3" fill="#7209b7"/>
    
    <!-- Data flow lines -->
    <g opacity="0.6">
      <path d="M400,100 Q450,150 500,100" stroke="#4361ee" stroke-width="1" stroke-dasharray="4 2"/>
      <path d="M300,500 Q350,450 400,500" stroke="#4361ee" stroke-width="1" stroke-dasharray="4 2"/>
      <path d="M150,400 Q200,350 250,400" stroke="#4361ee" stroke-width="1" stroke-dasharray="4 2"/>
      <path d="M550,300 Q600,250 650,300" stroke="#4361ee" stroke-width="1" stroke-dasharray="4 2"/>
    </g>
  </g>
  
  <!-- Central Flash Genie AI Core -->
  <g class="ai-core" filter="url(#glow)" transform="translate(400, 300)">
    <!-- Core Hexagon -->
    <path d="M0,-60 L52,-30 L52,30 L0,60 L-52,30 L-52,-30 Z" fill="#7209b7" opacity="0.8"/>
    <path d="M0,-50 L43,-25 L43,25 L0,50 L-43,25 L-43,-25 Z" fill="url(#brand-pattern)" stroke="#4361ee" stroke-width="2"/>
    
    <!-- Core Animation -->
    <path d="M0,-40 L35,-20 L35,20 L0,40 L-35,20 L-35,-20 Z" fill="none" stroke="#ffffff" stroke-width="1" opacity="0.5">
      <animate attributeName="opacity" values="0.2;0.8;0.2" dur="3s" repeatCount="indefinite"/>
      <animate attributeName="stroke-width" values="1;2;1" dur="3s" repeatCount="indefinite"/>
    </path>
    
    <!-- Flash Genie Icon -->
    <g transform="translate(-20, -20) scale(0.8)">
      <path d="M20,0 L40,0 L25,25 L35,25 L10,50 L15,30 L5,30 Z" fill="#ffffff" opacity="0.9"/>
      <animate attributeName="opacity" values="0.7;1;0.7" dur="2s" repeatCount="indefinite"/>
    </g>
    
    <!-- Connection Nodes -->
    <circle cx="0" cy="-60" r="5" fill="#4361ee" opacity="0.8">
      <animate attributeName="r" values="4;6;4" dur="2s" repeatCount="indefinite"/>
    </circle>
    <circle cx="52" cy="-30" r="5" fill="#4361ee" opacity="0.8">
      <animate attributeName="r" values="4;6;4" dur="2s" repeatCount="indefinite" begin="0.3s"/>
    </circle>
    <circle cx="52" cy="30" r="5" fill="#4361ee" opacity="0.8">
      <animate attributeName="r" values="4;6;4" dur="2s" repeatCount="indefinite" begin="0.6s"/>
    </circle>
    <circle cx="0" cy="60" r="5" fill="#4361ee" opacity="0.8">
      <animate attributeName="r" values="4;6;4" dur="2s" repeatCount="indefinite" begin="0.9s"/>
    </circle>
    <circle cx="-52" cy="30" r="5" fill="#4361ee" opacity="0.8">
      <animate attributeName="r" values="4;6;4" dur="2s" repeatCount="indefinite" begin="1.2s"/>
    </circle>
    <circle cx="-52" cy="-30" r="5" fill="#4361ee" opacity="0.8">
      <animate attributeName="r" values="4;6;4" dur="2s" repeatCount="indefinite" begin="1.5s"/>
    </circle>
  </g>
  
  <!-- Before/After Photo Transformation -->
  <g class="photo-transformation" transform="translate(200, 150)">
    <!-- Before Photo (Original) -->
    <g class="before-photo" opacity="0.7">
      <rect x="-50" y="-70" width="100" height="140" rx="5" fill="#f0f0f0" stroke="#dddddd" stroke-width="1"/>
      
      <!-- Generic Person Silhouette -->
      <circle cx="0" cy="-30" r="25" fill="#dddddd"/>
      <path d="M-20,0 C-20,20 20,20 20,0 L20,50 L-20,50 Z" fill="#dddddd"/>
      
      <!-- Photo Frame Elements -->
      <rect x="-40" y="60" width="80" height="5" rx="2" fill="#dddddd"/>
    </g>
    
    <!-- After Photo (Transformed) -->
    <g class="after-photo" filter="url(#glow)">
      <rect x="-50" y="-70" width="100" height="140" rx="5" fill="#ffffff" stroke="#7209b7" stroke-width="2"/>
      
      <!-- Transformed Person with Brand Elements -->
      <circle cx="0" cy="-30" r="25" fill="#7209b7" opacity="0.3"/>
      <path d="M-20,0 C-20,20 20,20 20,0 L20,50 L-20,50 Z" fill="#4361ee" opacity="0.3"/>
      
      <!-- Brand Overlay Elements -->
      <rect x="-40" y="-50" width="80" height="10" rx="5" fill="#7209b7" opacity="0.7"/>
      <circle cx="30" cy="-30" r="15" fill="#4361ee" opacity="0.5"/>
      <path d="M-40,-10 L40,-10" stroke="#7209b7" stroke-width="2" opacity="0.5"/>
      <path d="M-30,10 L30,10" stroke="#7209b7" stroke-width="2" opacity="0.5"/>
      <path d="M-20,30 L20,30" stroke="#7209b7" stroke-width="2" opacity="0.5"/>
      
      <!-- Logo Watermark -->
      <g transform="translate(-35, 55) scale(0.3)">
        <path d="M0,0 L30,0 L15,25 L25,25 L0,50 L5,30 L-5,30 Z" fill="#7209b7" opacity="0.8"/>
      </g>
      
      <!-- Branded Footer -->
      <rect x="-40" y="60" width="80" height="5" rx="2" fill="#7209b7"/>
    </g>
    
    <!-- Transformation Magic Effects -->
    <g class="magic-effects" filter="url(#sparkle)">
      <circle cx="0" cy="-30" r="3" fill="#ffffff">
        <animate attributeName="r" values="2;4;2" dur="2s" repeatCount="indefinite"/>
        <animate attributeName="opacity" values="0.5;1;0.5" dur="2s" repeatCount="indefinite"/>
      </circle>
      <circle cx="20" cy="0" r="3" fill="#ffffff">
        <animate attributeName="r" values="2;4;2" dur="2s" repeatCount="indefinite" begin="0.3s"/>
        <animate attributeName="opacity" values="0.5;1;0.5" dur="2s" repeatCount="indefinite" begin="0.3s"/>
      </circle>
      <circle cx="-20" cy="0" r="3" fill="#ffffff">
        <animate attributeName="r" values="2;4;2" dur="2s" repeatCount="indefinite" begin="0.6s"/>
        <animate attributeName="opacity" values="0.5;1;0.5" dur="2s" repeatCount="indefinite" begin="0.6s"/>
      </circle>
      <circle cx="0" cy="30" r="3" fill="#ffffff">
        <animate attributeName="r" values="2;4;2" dur="2s" repeatCount="indefinite" begin="0.9s"/>
        <animate attributeName="opacity" values="0.5;1;0.5" dur="2s" repeatCount="indefinite" begin="0.9s"/>
      </circle>
    </g>
  </g>
  
  <!-- Branding Elements -->
  <g class="branding-elements" transform="translate(600, 150)">
    <!-- Logo Design -->
    <g class="logo-design" transform="translate(-70, -50)">
      <rect x="-40" y="-40" width="80" height="80" rx="5" fill="#ffffff" stroke="#7209b7" stroke-width="2"/>
      
      <!-- Sample Logo -->
      <circle cx="0" cy="0" r="25" fill="#7209b7" opacity="0.7"/>
      <path d="M-15,-15 L15,15 M-15,15 L15,-15" stroke="#ffffff" stroke-width="3" stroke-linecap="round"/>
      
      <!-- Logo Design Tools -->
      <circle cx="-25" cy="-25" r="5" fill="#4361ee" opacity="0.7"/>
      <circle cx="25" cy="-25" r="5" fill="#4361ee" opacity="0.7"/>
      <circle cx="25" cy="25" r="5" fill="#4361ee" opacity="0.7"/>
      <circle cx="-25" cy="25" r="5" fill="#4361ee" opacity="0.7"/>
      
      <!-- Design Grid -->
      <path d="M-30,0 L30,0 M0,-30 L0,30" stroke="#dddddd" stroke-width="0.5" stroke-dasharray="2 2"/>
    </g>
    
    <!-- Color Palette -->
    <g class="color-palette" transform="translate(30, -50)">
      <rect x="-40" y="-40" width="80" height="80" rx="5" fill="#ffffff" stroke="#7209b7" stroke-width="2"/>
      
      <!-- Color Swatches -->
      <circle cx="-20" cy="-20" r="15" fill="#7209b7"/>
      <circle cx="20" cy="-20" r="15" fill="#4361ee"/>
      <circle cx="-20" cy="20" r="15" fill="#560bad"/>
      <circle cx="20" cy="20" r="15" fill="#3a0ca3"/>
      
      <!-- Color Picker -->
      <circle cx="0" cy="0" r="10" fill="#ffffff" stroke="#333333" stroke-width="1"/>
      <path d="M0,-8 L0,8 M-8,0 L8,0" stroke="#333333" stroke-width="1"/>
    </g>
    
    <!-- Typography -->
    <g class="typography" transform="translate(-70, 50)">
      <rect x="-40" y="-40" width="80" height="80" rx="5" fill="#ffffff" stroke="#7209b7" stroke-width="2"/>
      
      <!-- Font Samples -->
      <text x="-35" y="-15" font-family="Arial" font-size="12" font-weight="bold" fill="#333333">Aa</text>
      <text x="15" y="-15" font-family="Arial" font-size="12" font-style="italic" fill="#333333">Bb</text>
      <text x="-35" y="15" font-family="Arial" font-size="12" fill="#333333">Cc</text>
      <text x="15" y="15" font-family="Arial" font-size="8" fill="#333333">123</text>
      
      <!-- Font Size Slider -->
      <line x1="-30" y1="30" x2="30" y2="30" stroke="#dddddd" stroke-width="2"/>
      <circle cx="0" cy="30" r="5" fill="#7209b7">
        <animate attributeName="cx" values="-10;10;-10" dur="4s" repeatCount="indefinite"/>
      </circle>
    </g>
    
    <!-- Brand Guidelines -->
    <g class="brand-guidelines" transform="translate(30, 50)">
      <rect x="-40" y="-40" width="80" height="80" rx="5" fill="#ffffff" stroke="#7209b7" stroke-width="2"/>
      
      <!-- Guidelines Document -->
      <rect x="-30" y="-30" width="60" height="60" fill="#f0f0f0"/>
      
      <!-- Document Lines -->
      <rect x="-25" y="-25" width="40" height="5" rx="2" fill="#7209b7"/>
      <rect x="-25" y="-15" width="50" height="2" rx="1" fill="#dddddd"/>
      <rect x="-25" y="-10" width="45" height="2" rx="1" fill="#dddddd"/>
      <rect x="-25" y="-5" width="50" height="2" rx="1" fill="#dddddd"/>
      
      <rect x="-25" y="5" width="20" height="10" rx="2" fill="#4361ee" opacity="0.7"/>
      <rect x="0" y="5" width="20" height="10" rx="2" fill="#7209b7" opacity="0.7"/>
      
      <rect x="-25" y="20" width="50" height="2" rx="1" fill="#dddddd"/>
      <rect x="-25" y="25" width="40" height="2" rx="1" fill="#dddddd"/>
      <rect x="-25" y="30" width="45" height="2" rx="1" fill="#dddddd"/>
    </g>
  </g>
  
  <!-- Photo Upload and Processing -->
  <g class="photo-upload" transform="translate(200, 450)">
    <!-- Upload Interface -->
    <rect x="-80" y="-60" width="160" height="120" rx="10" fill="#ffffff" stroke="#7209b7" stroke-width="2"/>
    
    <!-- Upload Area -->
    <rect x="-70" y="-50" width="140" height="80" rx="5" fill="#f0f0f0" stroke="#dddddd" stroke-width="1" stroke-dasharray="5 3"/>
    
    <!-- Upload Icon -->
    <g transform="translate(0, -20)">
      <circle cx="0" cy="0" r="20" fill="#7209b7" opacity="0.2"/>
      <path d="M0,-10 L0,10 M-10,0 L10,0" stroke="#7209b7" stroke-width="2"/>
      <path d="M-5,-5 L0,-10 L5,-5" stroke="#7209b7" stroke-width="2"/>
    </g>
    
    <!-- Upload Text -->
    <text x="0" y="20" font-family="Arial" font-size="10" text-anchor="middle" fill="#333333">Upload Photo</text>
    
    <!-- Upload Button -->
    <rect x="-30" y="40" width="60" height="10" rx="5" fill="#7209b7"/>
    <text x="0" y="48" font-family="Arial" font-size="8" text-anchor="middle" fill="#ffffff">SELECT</text>
    
    <!-- Upload Animation -->
    <circle cx="0" cy="-20" r="25" fill="none" stroke="#7209b7" stroke-width="2" stroke-dasharray="50 10">
      <animate attributeName="stroke-dashoffset" values="0;60" dur="3s" repeatCount="indefinite"/>
    </circle>
  </g>
  
  <!-- Branded Output Gallery -->
  <g class="output-gallery" transform="translate(600, 450)">
    <!-- Gallery Interface -->
    <rect x="-80" y="-60" width="160" height="120" rx="10" fill="#ffffff" stroke="#7209b7" stroke-width="2"/>
    
    <!-- Gallery Grid -->
    <g class="gallery-grid">
      <!-- Row 1 -->
      <rect x="-70" y="-50" width="45" height="45" rx="3" fill="#f0f0f0" stroke="#dddddd" stroke-width="1"/>
      <rect x="-20" y="-50" width="45" height="45" rx="3" fill="#f0f0f0" stroke="#dddddd" stroke-width="1"/>
      <rect x="30" y="-50" width="45" height="45" rx="3" fill="#f0f0f0" stroke="#dddddd" stroke-width="1"/>
      
      <!-- Row 2 -->
      <rect x="-70" y="0" width="45" height="45" rx="3" fill="#f0f0f0" stroke="#dddddd" stroke-width="1"/>
      <rect x="-20" y="0" width="45" height="45" rx="3" fill="#f0f0f0" stroke="#dddddd" stroke-width="1"/>
      <rect x="30" y="0" width="45" height="45" rx="3" fill="#f0f0f0" stroke="#dddddd" stroke-width="1"/>
    </g>
    
    <!-- Sample Branded Images -->
    <g class="sample-images">
      <rect x="-65" y="-45" width="35" height="35" fill="#7209b7" opacity="0.3"/>
      <rect x="-15" y="-45" width="35" height="35" fill="#4361ee" opacity="0.3"/>
      <rect x="35" y="-45" width="35" height="35" fill="#560bad" opacity="0.3"/>
      <rect x="-65" y="5" width="35" height="35" fill="#3a0ca3" opacity="0.3"/>
      <rect x="-15" y="5" width="35" height="35" fill="#7209b7" opacity="0.3"/>
      <rect x="35" y="5" width="35" height="35" fill="#4361ee" opacity="0.3"/>
    </g>
    
    <!-- Brand Watermarks -->
    <g class="watermarks" opacity="0.7">
      <g transform="translate(-47.5, -27.5) scale(0.2)">
        <path d="M0,0 L30,0 L15,25 L25,25 L0,50 L5,30 L-5,30 Z" fill="#ffffff"/>
      </g>
      <g transform="translate(2.5, -27.5) scale(0.2)">
        <path d="M0,0 L30,0 L15,25 L25,25 L0,50 L5,30 L-5,30 Z" fill="#ffffff"/>
      </g>
      <g transform="translate(52.5, -27.5) scale(0.2)">
        <path d="M0,0 L30,0 L15,25 L25,25 L0,50 L5,30 L-5,30 Z" fill="#ffffff"/>
      </g>
      <g transform="translate(-47.5, 22.5) scale(0.2)">
        <path d="M0,0 L30,0 L15,25 L25,25 L0,50 L5,30 L-5,30 Z" fill="#ffffff"/>
      </g>
      <g transform="translate(2.5, 22.5) scale(0.2)">
        <path d="M0,0 L30,0 L15,25 L25,25 L0,50 L5,30 L-5,30 Z" fill="#ffffff"/>
      </g>
      <g transform="translate(52.5, 22.5) scale(0.2)">
        <path d="M0,0 L30,0 L15,25 L25,25 L0,50 L5,30 L-5,30 Z" fill="#ffffff"/>
      </g>
    </g>
  </g>
  
  <!-- Data Flow Connections -->
  <g class="data-connections">
    <!-- Photo to AI Core -->
    <path d="M200,150 Q300,225 400,300" stroke="#7209b7" stroke-width="1.5" stroke-dasharray="5 3" opacity="0.7">
      <animate attributeName="stroke-dashoffset" values="8;0" dur="3s" repeatCount="indefinite"/>
    </path>
    
    <!-- Branding Elements to AI Core -->
    <path d="M600,150 Q500,225 400,300" stroke="#7209b7" stroke-width="1.5" stroke-dasharray="5 3" opacity="0.7">
      <animate attributeName="stroke-dashoffset" values="8;0" dur="3s" repeatCount="indefinite"/>
    </path>
    
    <!-- Upload to AI Core -->
    <path d="M200,450 Q300,375 400,300" stroke="#7209b7" stroke-width="1.5" stroke-dasharray="5 3" opacity="0.7">
      <animate attributeName="stroke-dashoffset" values="8;0" dur="3s" repeatCount="indefinite"/>
    </path>
    
    <!-- AI Core to Gallery -->
    <path d="M400,300 Q500,375 600,450" stroke="#7209b7" stroke-width="1.5" stroke-dasharray="5 3" opacity="0.7">
      <animate attributeName="stroke-dashoffset" values="8;0" dur="3s" repeatCount="indefinite"/>
    </path>
  </g>
  
  <!-- Magic Sparkles -->
  <g class="magic-sparkles" filter="url(#sparkle)">
    <circle cx="300" cy="225" r="3" fill="#ffffff" opacity="0.8">
      <animate attributeName="opacity" values="0.3;1;0.3" dur="2s" repeatCount="indefinite"/>
      <animate attributeName="r" values="2;4;2" dur="2s" repeatCount="indefinite"/>
    </circle>
    <circle cx="500" cy="225" r="3" fill="#ffffff" opacity="0.8">
      <animate attributeName="opacity" values="0.3;1;0.3" dur="2s" repeatCount="indefinite" begin="0.5s"/>
      <animate attributeName="r" values="2;4;2" dur="2s" repeatCount="indefinite" begin="0.5s"/>
    </circle>
    <circle cx="300" cy="375" r="3" fill="#ffffff" opacity="0.8">
      <animate attributeName="opacity" values="0.3;1;0.3" dur="2s" repeatCount="indefinite" begin="1s"/>
      <animate attributeName="r" values="2;4;2" dur="2s" repeatCount="indefinite" begin="1s"/>
    </circle>
    <circle cx="500" cy="375" r="3" fill="#ffffff" opacity="0.8">
      <animate attributeName="opacity" values="0.3;1;0.3" dur="2s" repeatCount="indefinite" begin="1.5s"/>
      <animate attributeName="r" values="2;4;2" dur="2s" repeatCount="indefinite" begin="1.5s"/>
    </circle>
  </g>
  
  <!-- UI Elements -->
  <g class="ui-elements" opacity="0.9">
    <!-- Theme Selector -->
    <g transform="translate(300, 200)">
      <rect x="-40" y="-15" width="80" height="30" rx="15" fill="#ffffff" stroke="#7209b7" stroke-width="1"/>
      <text x="-30" y="5" font-family="Arial" font-size="10" fill="#7209b7">THEMES</text>
      <circle cx="20" cy="0" r="10" fill="#7209b7"/>
      <path d="M15,0 L25,0 M20,-5 L20,5" stroke="#ffffff" stroke-width="2"/>
    </g>
    
    <!-- Download Button -->
    <g transform="translate(500, 200)">
      <rect x="-40" y="-15" width="80" height="30" rx="15" fill="#ffffff" stroke="#7209b7" stroke-width="1"/>
      <text x="-30" y="5" font-family="Arial" font-size="10" fill="#7209b7">DOWNLOAD</text>
      <circle cx="20" cy="0" r="10" fill="#7209b7"/>
      <path d="M20,-5 L20,5 M15,0 L25,0 M17,3 L20,6 L23,3" stroke="#ffffff" stroke-width="1"/>
    </g>
    
    <!-- Brand Settings -->
    <g transform="translate(300, 400)">
      <rect x="-40" y="-15" width="80" height="30" rx="5" fill="#ffffff" stroke="#7209b7" stroke-width="1"/>
      <text x="-30" y="5" font-family="Arial" font-size="10" fill="#7209b7">BRAND</text>
      <rect x="15" y="-5" width="15" height="10" rx="2" fill="#7209b7"/>
      <circle cx="22.5" cy="0" r="3" fill="#ffffff"/>
    </g>
    
    <!-- Share Button -->
    <g transform="translate(500, 400)">
      <rect x="-40" y="-15" width="80" height="30" rx="5" fill="#ffffff" stroke="#7209b7" stroke-width="1"/>
      <text x="-30" y="5" font-family="Arial" font-size="10" fill="#7209b7">SHARE</text>
      <path d="M15,-5 C25,-5 25,5 15,5" stroke="#7209b7" stroke-width="1" fill="none"/>
      <circle cx="15" cy="-5" r="3" fill="#7209b7"/>
      <circle cx="15" cy="5" r="3" fill="#7209b7"/>
      <circle cx="25" cy="0" r="3" fill="#7209b7"/>
    </g>
  </g>
  
  <!-- Flash Genie Text -->
  <g class="flash-genie-text" transform="translate(400, 100)">
    <path d="M-120,-10 L120,-10 L120,10 L-120,10 Z" fill="#7209b7" opacity="0.8" rx="10"/>
    <text x="0" y="5" font-family="Arial" font-size="14" font-weight="bold" text-anchor="middle" fill="#ffffff">FLASH GENIE</text>
    
    <!-- Magic Wand Icon -->
    <g transform="translate(-140, 0) rotate(-30)">
      <rect x="-2" y="-15" width="4" height="30" rx="2" fill="#ffffff"/>
      <circle cx="0" cy="-15" r="5" fill="#ffffff" opacity="0.8">
        <animate attributeName="opacity" values="0.5;1;0.5" dur="2s" repeatCount="indefinite"/>
        <animate attributeName="r" values="5;7;5" dur="2s" repeatCount="indefinite"/>
      </circle>
    </g>
  </g>
</svg>
