<?xml version="1.0" encoding="UTF-8"?>
<svg xmlns="http://www.w3.org/2000/svg" viewBox="0 0 800 600" fill="none">
  <!-- Background with gradient -->
  <defs>
    <linearGradient id="bg-gradient" x1="0%" y1="0%" x2="100%" y2="100%">
      <stop offset="0%" stop-color="#7209b7" stop-opacity="0.1"/>
      <stop offset="100%" stop-color="#3a0ca3" stop-opacity="0.2"/>
    </linearGradient>
    
    <!-- Glow effects -->
    <filter id="glow" x="-20%" y="-20%" width="140%" height="140%">
      <feGaussianBlur stdDeviation="5" result="blur"/>
      <feComposite in="SourceGraphic" in2="blur" operator="over"/>
    </filter>
    
    <!-- Photo frame pattern -->
    <pattern id="photo-pattern" patternUnits="userSpaceOnUse" width="6" height="6">
      <path d="M0,3 L6,3" stroke="#ffffff" stroke-width="0.5" stroke-opacity="0.3"/>
      <path d="M3,0 L3,6" stroke="#ffffff" stroke-width="0.5" stroke-opacity="0.3"/>
    </pattern>
  </defs>
  
  <!-- Background rectangle -->
  <rect width="800" height="600" fill="url(#bg-gradient)"/>
  
  <!-- Decorative circuit elements -->
  <g class="circuit-elements" opacity="0.15">
    <path d="M100,300 C150,250 200,350 250,300" stroke="#4361ee" stroke-width="2" fill="none"/>
    <path d="M500,200 C550,150 600,250 650,200" stroke="#4361ee" stroke-width="2" fill="none"/>
    <path d="M150,150 L200,150" stroke="#4361ee" stroke-width="1.5"/>
    <path d="M600,400 L650,400" stroke="#4361ee" stroke-width="1.5"/>
    <circle cx="150" cy="150" r="3" fill="#4361ee"/>
    <circle cx="200" cy="150" r="3" fill="#4361ee"/>
    <circle cx="600" cy="400" r="3" fill="#4361ee"/>
    <circle cx="650" cy="400" r="3" fill="#4361ee"/>
    
    <!-- Data flow lines -->
    <g opacity="0.6">
      <path d="M400,100 Q450,150 500,100" stroke="#7209b7" stroke-width="1" stroke-dasharray="4 2"/>
      <path d="M300,500 Q350,450 400,500" stroke="#7209b7" stroke-width="1" stroke-dasharray="4 2"/>
      <path d="M150,400 Q200,350 250,400" stroke="#7209b7" stroke-width="1" stroke-dasharray="4 2"/>
      <path d="M550,300 Q600,250 650,300" stroke="#7209b7" stroke-width="1" stroke-dasharray="4 2"/>
    </g>
  </g>
  
  <!-- Main Photobooth Kiosk -->
  <g class="photobooth-kiosk">
    <!-- Kiosk Base/Stand -->
    <rect x="350" y="380" width="100" height="150" rx="5" fill="#212529"/>
    <rect x="340" y="530" width="120" height="20" rx="3" fill="#111111"/>
    
    <!-- Kiosk Main Body -->
    <rect x="300" y="180" width="200" height="200" rx="15" fill="#2b2d42"/>
    <rect x="310" y="190" width="180" height="180" rx="10" fill="#333333"/>
    
    <!-- Touchscreen -->
    <rect x="320" y="200" width="160" height="120" rx="5" fill="#111111"/>
    <rect x="325" y="205" width="150" height="110" rx="3" fill="#0a0a0a"/>
    
    <!-- Screen Content -->
    <rect x="330" y="210" width="140" height="100" rx="2" fill="#3a0ca3"/>
    
    <!-- UI Elements on Screen -->
    <rect x="340" y="220" width="50" height="10" rx="2" fill="#ffffff" opacity="0.8"/>
    <rect x="340" y="240" width="120" height="5" rx="1" fill="#ffffff" opacity="0.5"/>
    <rect x="340" y="250" width="100" height="5" rx="1" fill="#ffffff" opacity="0.5"/>
    <rect x="340" y="270" width="60" height="20" rx="3" fill="#7209b7"/>
    <text x="350" y="285" font-family="Arial" font-size="10" fill="#ffffff">START</text>
    
    <!-- Camera Lens -->
    <circle cx="400" cy="350" r="15" fill="#111111"/>
    <circle cx="400" cy="350" r="12" fill="#0a0a0a"/>
    <circle cx="400" cy="350" r="8" fill="#000000"/>
    <circle cx="400" cy="350" r="6" fill="#111111"/>
    <circle cx="400" cy="350" r="4" fill="#000000"/>
    <circle cx="396" cy="346" r="2" fill="#ffffff" opacity="0.5"/>
    
    <!-- Logo Area -->
    <rect x="350" y="160" width="100" height="20" rx="3" fill="#7209b7"/>
    <text x="370" y="175" font-family="Arial" font-size="14" font-weight="bold" fill="#ffffff">NIAA</text>
    
    <!-- Decorative Lights -->
    <circle cx="320" cy="350" r="3" fill="#4361ee">
      <animate attributeName="opacity" values="0.5;1;0.5" dur="2s" repeatCount="indefinite"/>
    </circle>
    <circle cx="480" cy="350" r="3" fill="#4361ee">
      <animate attributeName="opacity" values="0.5;1;0.5" dur="2s" repeatCount="indefinite" begin="0.5s"/>
    </circle>
  </g>
  
  <!-- Floating AI-Enhanced Photos -->
  <g class="floating-photos" filter="url(#glow)">
    <!-- Photo 1 - Portrait -->
    <g transform="translate(150, 150) rotate(-15)">
      <rect x="-40" y="-50" width="80" height="100" rx="5" fill="#ffffff" stroke="#7209b7" stroke-width="2"/>
      <rect x="-35" y="-45" width="70" height="90" fill="url(#photo-pattern)"/>
      <circle cx="0" cy="0" r="25" fill="#7209b7" opacity="0.7"/>
      <path d="M-10,-10 C-5,-15 5,-15 10,-10 C15,0 5,20 0,25 C-5,20 -15,0 -10,-10" fill="#ffffff" opacity="0.8"/>
      <animate attributeName="transform" 
               type="translate" 
               from="150,150" 
               to="140,140" 
               dur="3s" 
               repeatCount="indefinite" 
               additive="sum"
               calcMode="spline"
               keySplines="0.5 0 0.5 1"/>
    </g>
    
    <!-- Photo 2 - Landscape -->
    <g transform="translate(600, 200) rotate(10)">
      <rect x="-50" y="-35" width="100" height="70" rx="5" fill="#ffffff" stroke="#4361ee" stroke-width="2"/>
      <rect x="-45" y="-30" width="90" height="60" fill="url(#photo-pattern)"/>
      <circle cx="-15" cy="0" r="15" fill="#4361ee" opacity="0.7"/>
      <circle cx="20" cy="0" r="15" fill="#7209b7" opacity="0.7"/>
      <animate attributeName="transform" 
               type="translate" 
               from="600,200" 
               to="610,190" 
               dur="4s" 
               repeatCount="indefinite" 
               additive="sum"
               calcMode="spline"
               keySplines="0.5 0 0.5 1"/>
    </g>
    
    <!-- Photo 3 - Square -->
    <g transform="translate(200, 400) rotate(-5)">
      <rect x="-40" y="-40" width="80" height="80" rx="5" fill="#ffffff" stroke="#3a0ca3" stroke-width="2"/>
      <rect x="-35" y="-35" width="70" height="70" fill="url(#photo-pattern)"/>
      <rect x="-20" y="-20" width="40" height="40" rx="20" fill="#3a0ca3" opacity="0.7"/>
      <animate attributeName="transform" 
               type="translate" 
               from="200,400" 
               to="190,410" 
               dur="3.5s" 
               repeatCount="indefinite" 
               additive="sum"
               calcMode="spline"
               keySplines="0.5 0 0.5 1"/>
    </g>
    
    <!-- Photo 4 - Portrait -->
    <g transform="translate(550, 450) rotate(8)">
      <rect x="-35" y="-45" width="70" height="90" rx="5" fill="#ffffff" stroke="#7209b7" stroke-width="2"/>
      <rect x="-30" y="-40" width="60" height="80" fill="url(#photo-pattern)"/>
      <path d="M-15,-15 C-5,-25 5,-25 15,-15 C25,0 15,30 0,35 C-15,30 -25,0 -15,-15" fill="#7209b7" opacity="0.7"/>
      <animate attributeName="transform" 
               type="translate" 
               from="550,450" 
               to="560,440" 
               dur="4.5s" 
               repeatCount="indefinite" 
               additive="sum"
               calcMode="spline"
               keySplines="0.5 0 0.5 1"/>
    </g>
  </g>
  
  <!-- AI Processing Visualization -->
  <g class="ai-processing">
    <!-- Data Flow from Camera to Photos -->
    <path d="M400,350 Q300,300 200,250" stroke="#4361ee" stroke-width="1.5" stroke-dasharray="5 3" opacity="0.6">
      <animate attributeName="stroke-dashoffset" values="8;0" dur="2s" repeatCount="indefinite"/>
    </path>
    <path d="M400,350 Q500,250 600,200" stroke="#4361ee" stroke-width="1.5" stroke-dasharray="5 3" opacity="0.6">
      <animate attributeName="stroke-dashoffset" values="8;0" dur="2s" repeatCount="indefinite"/>
    </path>
    <path d="M400,350 Q300,400 200,450" stroke="#4361ee" stroke-width="1.5" stroke-dasharray="5 3" opacity="0.6">
      <animate attributeName="stroke-dashoffset" values="8;0" dur="2s" repeatCount="indefinite"/>
    </path>
    <path d="M400,350 Q500,400 550,450" stroke="#4361ee" stroke-width="1.5" stroke-dasharray="5 3" opacity="0.6">
      <animate attributeName="stroke-dashoffset" values="8;0" dur="2s" repeatCount="indefinite"/>
    </path>
    
    <!-- AI Processing Nodes -->
    <circle cx="350" cy="300" r="5" fill="#7209b7" opacity="0.8">
      <animate attributeName="r" values="5;7;5" dur="2s" repeatCount="indefinite"/>
    </circle>
    <circle cx="450" cy="300" r="5" fill="#7209b7" opacity="0.8">
      <animate attributeName="r" values="5;7;5" dur="2s" repeatCount="indefinite" begin="0.5s"/>
    </circle>
    <circle cx="350" cy="400" r="5" fill="#7209b7" opacity="0.8">
      <animate attributeName="r" values="5;7;5" dur="2s" repeatCount="indefinite" begin="1s"/>
    </circle>
    <circle cx="450" cy="400" r="5" fill="#7209b7" opacity="0.8">
      <animate attributeName="r" values="5;7;5" dur="2s" repeatCount="indefinite" begin="1.5s"/>
    </circle>
  </g>
</svg>
